<?xml version="1.0" encoding="utf-8"?>
<!-- Generator: Adobe Illustrator 12.0.1, SVG Export Plug-In . SVG Version: 6.00 Build 51448)  -->
<!DOCTYPE svg PUBLIC "-//W3C//DTD SVG 1.1//EN" "http://www.w3.org/Graphics/SVG/1.1/DTD/svg11.dtd" [
	<!ENTITY ns_svg "http://www.w3.org/2000/svg">
	<!ENTITY ns_xlink "http://www.w3.org/1999/xlink">
]>
<svg  version="1.1" id="Layer_1" xmlns="&ns_svg;" xmlns:xlink="&ns_xlink;" width="600" height="760.018"
	 viewBox="0 0 600 760.018" overflow="visible" enable-background="new 0 0 600 760.018" xml:space="preserve">
<g>
	<path fill="none" stroke="#A71F3C" stroke-width="9.417" d="M285.626,74.829c-8.939,0-16.164-7.177-16.164-16.009
		c0-8.829,7.225-16.004,16.164-16.004c8.918,0,16.143,7.175,16.143,16.004C301.77,67.652,294.545,74.829,285.626,74.829z"/>
	<path fill="none" stroke="#A71F3C" stroke-width="14.5098" d="M193.911,502.795V281.186l-186.65,97.62v224.641l277.744,145.419
		l277.729-145.419V378.806l-186.7-97.62v221.608l-91.029,48.276L193.911,502.795L193.911,502.795z M7.226,62.935v286.457
		l186.736-98.219V66.861 M375.188,66.841h188.288L452.738,7.238H115.831L5.443,66.841h188.288 M562.771,62.935v286.457
		l-186.735-97.669V66.861 M193.963,67.603v183.395l46.157-23.971v-85.356c0-24.521,20.105-44.41,44.886-44.41
		c24.767,0,44.872,19.89,44.872,44.41l-0.141,85.888l46.298,24.25l0.071-184.052l-91.101-47.585L193.963,67.603L193.963,67.603z"/>
</g>
</svg>

